<svg width="233" height="251" viewBox="0 0 233 251" fill="none" xmlns="http://www.w3.org/2000/svg">
<rect x="40" y="1" width="192" height="205" stroke="white" stroke-width="2"/>
<circle cx="4.40351" cy="48.4387" r="4.40351" fill="#FAFAFA" fill-opacity="0.65"/>
<circle cx="4.40351" cy="70.4562" r="4.40351" fill="#FAFAFA" fill-opacity="0.65"/>
<circle cx="4.40351" cy="92.4738" r="4.40351" fill="#FAFAFA" fill-opacity="0.65"/>
<circle cx="4.40351" cy="114.491" r="4.40351" fill="#FAFAFA" fill-opacity="0.65"/>
<circle cx="4.40351" cy="136.509" r="4.40351" fill="#FAFAFA" fill-opacity="0.65"/>
<circle cx="4.40351" cy="158.526" r="4.40351" fill="#FAFAFA" fill-opacity="0.65"/>
<circle cx="4.40351" cy="180.544" r="4.40351" fill="#FAFAFA" fill-opacity="0.65"/>
<circle cx="4.40351" cy="202.561" r="4.40351" fill="#FAFAFA" fill-opacity="0.65"/>
<circle cx="4.40351" cy="224.579" r="4.40351" fill="#FAFAFA" fill-opacity="0.65"/>
<circle cx="4.40351" cy="246.597" r="4.40351" fill="#FAFAFA" fill-opacity="0.65"/>
<circle cx="30.8246" cy="48.4387" r="4.40351" fill="#FAFAFA" fill-opacity="0.65"/>
<circle cx="30.8246" cy="70.4562" r="4.40351" fill="#FAFAFA" fill-opacity="0.65"/>
<circle cx="30.8246" cy="92.4738" r="4.40351" fill="#FAFAFA" fill-opacity="0.65"/>
<circle cx="30.8246" cy="114.491" r="4.40351" fill="#FAFAFA" fill-opacity="0.65"/>
<circle cx="30.8246" cy="136.509" r="4.40351" fill="#FAFAFA" fill-opacity="0.65"/>
<circle cx="30.8246" cy="158.526" r="4.40351" fill="#FAFAFA" fill-opacity="0.65"/>
<circle cx="30.8246" cy="180.544" r="4.40351" fill="#FAFAFA" fill-opacity="0.65"/>
<circle cx="30.8246" cy="202.561" r="4.40351" fill="#FAFAFA" fill-opacity="0.65"/>
<circle cx="30.8246" cy="224.579" r="4.40351" fill="#FAFAFA" fill-opacity="0.65"/>
<circle cx="30.8246" cy="246.597" r="4.40351" fill="#FAFAFA" fill-opacity="0.65"/>
<circle cx="57.2456" cy="48.4387" r="4.40351" fill="#FAFAFA" fill-opacity="0.65"/>
<circle cx="57.2456" cy="70.4562" r="4.40351" fill="#FAFAFA" fill-opacity="0.65"/>
<circle cx="57.2456" cy="92.4738" r="4.40351" fill="#FAFAFA" fill-opacity="0.65"/>
<circle cx="57.2456" cy="114.491" r="4.40351" fill="#FAFAFA" fill-opacity="0.65"/>
<circle cx="57.2456" cy="136.509" r="4.40351" fill="#FAFAFA" fill-opacity="0.65"/>
<circle cx="57.2456" cy="158.526" r="4.40351" fill="#FAFAFA" fill-opacity="0.65"/>
<circle cx="57.2456" cy="180.544" r="4.40351" fill="#FAFAFA" fill-opacity="0.65"/>
<circle cx="57.2456" cy="202.561" r="4.40351" fill="#FAFAFA" fill-opacity="0.65"/>
<circle cx="57.2456" cy="224.579" r="4.40351" fill="#FAFAFA" fill-opacity="0.65"/>
<circle cx="57.2456" cy="246.597" r="4.40351" fill="#FAFAFA" fill-opacity="0.65"/>
<circle cx="83.6667" cy="48.4387" r="4.40351" fill="#FAFAFA" fill-opacity="0.65"/>
<circle cx="83.6667" cy="70.4562" r="4.40351" fill="#FAFAFA" fill-opacity="0.65"/>
<circle cx="83.6667" cy="92.4738" r="4.40351" fill="#FAFAFA" fill-opacity="0.65"/>
<circle cx="83.6667" cy="114.491" r="4.40351" fill="#FAFAFA" fill-opacity="0.65"/>
<circle cx="83.6667" cy="136.509" r="4.40351" fill="#FAFAFA" fill-opacity="0.65"/>
<circle cx="83.6667" cy="158.526" r="4.40351" fill="#FAFAFA" fill-opacity="0.65"/>
<circle cx="83.6667" cy="180.544" r="4.40351" fill="#FAFAFA" fill-opacity="0.65"/>
<circle cx="83.6667" cy="202.561" r="4.40351" fill="#FAFAFA" fill-opacity="0.65"/>
<circle cx="83.6667" cy="224.579" r="4.40351" fill="#FAFAFA" fill-opacity="0.65"/>
<circle cx="83.6667" cy="246.597" r="4.40351" fill="#FAFAFA" fill-opacity="0.65"/>
<circle cx="110.088" cy="48.4387" r="4.40351" fill="#FAFAFA" fill-opacity="0.65"/>
<circle cx="110.088" cy="70.4562" r="4.40351" fill="#FAFAFA" fill-opacity="0.65"/>
<circle cx="110.088" cy="92.4738" r="4.40351" fill="#FAFAFA" fill-opacity="0.65"/>
<circle cx="110.088" cy="114.491" r="4.40351" fill="#FAFAFA" fill-opacity="0.65"/>
<circle cx="110.088" cy="136.509" r="4.40351" fill="#FAFAFA" fill-opacity="0.65"/>
<circle cx="110.088" cy="158.526" r="4.40351" fill="#FAFAFA" fill-opacity="0.65"/>
<circle cx="110.088" cy="180.544" r="4.40351" fill="#FAFAFA" fill-opacity="0.65"/>
<circle cx="110.088" cy="202.561" r="4.40351" fill="#FAFAFA" fill-opacity="0.65"/>
<circle cx="110.088" cy="224.579" r="4.40351" fill="#FAFAFA" fill-opacity="0.65"/>
<circle cx="110.088" cy="246.597" r="4.40351" fill="#FAFAFA" fill-opacity="0.65"/>
<circle cx="136.509" cy="48.4387" r="4.40351" fill="#FAFAFA" fill-opacity="0.65"/>
<circle cx="136.509" cy="70.4562" r="4.40351" fill="#FAFAFA" fill-opacity="0.65"/>
<circle cx="136.509" cy="92.4738" r="4.40351" fill="#FAFAFA" fill-opacity="0.65"/>
<circle cx="136.509" cy="114.491" r="4.40351" fill="#FAFAFA" fill-opacity="0.65"/>
<circle cx="136.509" cy="136.509" r="4.40351" fill="#FAFAFA" fill-opacity="0.65"/>
<circle cx="136.509" cy="158.526" r="4.40351" fill="#FAFAFA" fill-opacity="0.65"/>
<circle cx="136.509" cy="180.544" r="4.40351" fill="#FAFAFA" fill-opacity="0.65"/>
<circle cx="136.509" cy="202.561" r="4.40351" fill="#FAFAFA" fill-opacity="0.65"/>
<circle cx="136.509" cy="224.579" r="4.40351" fill="#FAFAFA" fill-opacity="0.65"/>
<circle cx="136.509" cy="246.597" r="4.40351" fill="#FAFAFA" fill-opacity="0.65"/>
<circle cx="162.93" cy="48.4387" r="4.40351" fill="#FAFAFA" fill-opacity="0.65"/>
<circle cx="162.93" cy="70.4562" r="4.40351" fill="#FAFAFA" fill-opacity="0.65"/>
<circle cx="162.93" cy="92.4738" r="4.40351" fill="#FAFAFA" fill-opacity="0.65"/>
<circle cx="162.93" cy="114.491" r="4.40351" fill="#FAFAFA" fill-opacity="0.65"/>
<circle cx="162.93" cy="136.509" r="4.40351" fill="#FAFAFA" fill-opacity="0.65"/>
<circle cx="162.93" cy="158.526" r="4.40351" fill="#FAFAFA" fill-opacity="0.65"/>
<circle cx="162.93" cy="180.544" r="4.40351" fill="#FAFAFA" fill-opacity="0.65"/>
<circle cx="162.93" cy="202.561" r="4.40351" fill="#FAFAFA" fill-opacity="0.65"/>
<circle cx="162.93" cy="224.579" r="4.40351" fill="#FAFAFA" fill-opacity="0.65"/>
<circle cx="162.93" cy="246.597" r="4.40351" fill="#FAFAFA" fill-opacity="0.65"/>
<circle cx="189.351" cy="48.4387" r="4.40351" fill="#FAFAFA" fill-opacity="0.65"/>
<circle cx="189.351" cy="70.4562" r="4.40351" fill="#FAFAFA" fill-opacity="0.65"/>
<circle cx="189.351" cy="92.4738" r="4.40351" fill="#FAFAFA" fill-opacity="0.65"/>
<circle cx="189.351" cy="114.491" r="4.40351" fill="#FAFAFA" fill-opacity="0.65"/>
<circle cx="189.351" cy="136.509" r="4.40351" fill="#FAFAFA" fill-opacity="0.65"/>
<circle cx="189.351" cy="158.526" r="4.40351" fill="#FAFAFA" fill-opacity="0.65"/>
<circle cx="189.351" cy="180.544" r="4.40351" fill="#FAFAFA" fill-opacity="0.65"/>
<circle cx="189.351" cy="202.561" r="4.40351" fill="#FAFAFA" fill-opacity="0.65"/>
<circle cx="189.351" cy="224.579" r="4.40351" fill="#FAFAFA" fill-opacity="0.65"/>
<circle cx="189.351" cy="246.597" r="4.40351" fill="#FAFAFA" fill-opacity="0.65"/>
</svg>
